<svg xmlns="http://www.w3.org/2000/svg" width="180" height="91" fill="none"><path fill="#FFF" d="M18.928 61.512c-5.675 0-10.219-1.067-13.632-3.2-3.413-2.176-5.12-5.483-5.12-9.92 0-2.347.405-4.139 1.216-5.376.81-1.237 2.005-1.856 3.584-1.856 1.152 0 2.09.299 2.816.896.725.597 1.088 1.365 1.088 2.304 0 .853-.064 1.6-.192 2.24 0 .17-.043.47-.128.896-.043.427-.064.875-.064 1.344 0 1.92.96 3.35 2.88 4.288 1.963.939 4.693 1.408 8.192 1.408 3.627 0 6.464-.64 8.512-1.92 2.048-1.323 3.072-3.157 3.072-5.504 0-1.45-.47-2.688-1.408-3.712-.939-1.067-2.112-1.941-3.52-2.624-1.408-.725-3.392-1.6-5.952-2.624-3.285-1.28-5.973-2.496-8.064-3.648-2.048-1.152-3.819-2.71-5.312-4.672-1.45-2.005-2.176-4.48-2.176-7.424 0-3.072.81-5.803 2.432-8.192 1.664-2.39 4.032-4.245 7.104-5.568 3.115-1.323 6.763-1.984 10.944-1.984 3.115 0 5.973.47 8.576 1.408 2.603.896 4.672 2.283 6.208 4.16 1.579 1.877 2.368 4.181 2.368 6.912 0 2.688-.405 4.715-1.216 6.08-.81 1.365-2.005 2.048-3.584 2.048-1.11 0-2.048-.341-2.816-1.024-.725-.683-1.088-1.493-1.088-2.432 0-.81.064-1.557.192-2.24.128-1.28.192-2.09.192-2.432 0-1.792-.875-3.157-2.624-4.096-1.75-.939-3.925-1.408-6.528-1.408-3.67 0-6.485.683-8.448 2.048-1.92 1.323-2.88 3.2-2.88 5.632 0 1.621.49 3.008 1.472 4.16 1.024 1.152 2.283 2.112 3.776 2.88 1.493.768 3.584 1.685 6.272 2.752 3.243 1.323 5.845 2.517 7.808 3.584a15.23 15.23 0 0 1 4.992 4.352c1.408 1.835 2.112 4.096 2.112 6.784 0 5.035-1.92 8.917-5.76 11.648-3.797 2.688-8.896 4.032-15.296 4.032Zm55.063-14.784c.555 0 .981.256 1.28.768.341.512.512 1.216.512 2.112 0 1.707-.405 3.03-1.216 3.968-1.579 1.92-3.819 3.69-6.72 5.312a18.378 18.378 0 0 1-9.216 2.432c-4.48 0-7.957-1.216-10.432-3.648-2.475-2.432-3.712-5.76-3.712-9.984 0-2.944.619-5.675 1.856-8.192 1.237-2.56 2.944-4.587 5.12-6.08 2.219-1.493 4.715-2.24 7.488-2.24 2.475 0 4.459.747 5.952 2.24 1.493 1.45 2.24 3.435 2.24 5.952 0 2.944-1.067 5.483-3.2 7.616-2.09 2.09-5.653 3.755-10.688 4.992 1.067 1.963 3.093 2.944 6.08 2.944 1.92 0 4.096-.661 6.528-1.984a21.956 21.956 0 0 0 6.4-5.312c.512-.597 1.088-.896 1.728-.896Zm-16.128-9.28c-1.579 0-2.923.917-4.032 2.752-1.067 1.835-1.6 4.053-1.6 6.656v.128c2.517-.597 4.501-1.493 5.952-2.688 1.45-1.195 2.176-2.581 2.176-4.16 0-.81-.235-1.45-.704-1.92-.427-.512-1.024-.768-1.792-.768Zm41.253 9.28c.555 0 .981.256 1.28.768.341.512.512 1.216.512 2.112 0 1.707-.405 3.03-1.216 3.968-1.835 2.261-3.84 4.117-6.016 5.568-2.176 1.45-4.672 2.176-7.488 2.176-8.704 0-13.056-6.123-13.056-18.368 0-1.877.064-3.776.192-5.696h-2.496c-1.28 0-2.155-.235-2.624-.704-.427-.47-.64-1.216-.64-2.24 0-2.39.96-3.584 2.88-3.584h3.648c.725-4.693 1.835-8.981 3.328-12.864 1.493-3.883 3.285-6.976 5.376-9.28 2.133-2.304 4.416-3.456 6.848-3.456 1.792 0 3.2.79 4.224 2.368 1.024 1.579 1.536 3.563 1.536 5.952 0 6.613-2.773 12.373-8.32 17.28h7.168c.683 0 1.173.15 1.472.448.299.299.448.853.448 1.664 0 2.944-2.41 4.416-7.232 4.416h-7.808c-.085 2.133-.128 3.797-.128 4.992 0 4.437.512 7.552 1.536 9.344 1.067 1.792 2.73 2.688 4.992 2.688 1.835 0 3.456-.555 4.864-1.664 1.408-1.11 3.072-2.773 4.992-4.992.512-.597 1.088-.896 1.728-.896Zm-11.2-35.456c-.64 0-1.365.81-2.176 2.432-.768 1.579-1.515 3.797-2.24 6.656-.683 2.816-1.259 5.952-1.728 9.408 2.517-2.176 4.395-4.608 5.632-7.296 1.28-2.73 1.92-5.205 1.92-7.424 0-2.517-.47-3.776-1.408-3.776Zm32.037 35.456c.555 0 .981.256 1.28.768.341.512.512 1.216.512 2.112 0 1.707-.405 3.03-1.216 3.968-1.835 2.261-3.84 4.117-6.016 5.568-2.133 1.45-4.565 2.176-7.296 2.176-3.755 0-6.549-1.707-8.384-5.12-1.792-3.413-2.688-7.83-2.688-13.248 0-5.205.661-11.136 1.984-17.792 1.365-6.656 3.349-12.373 5.952-17.152 2.645-4.779 5.781-7.168 9.408-7.168 2.048 0 3.648.96 4.8 2.88 1.195 1.877 1.792 4.587 1.792 8.128 0 5.077-1.408 10.965-4.224 17.664-2.816 6.699-6.635 13.333-11.456 19.904.299 1.75.789 3.008 1.472 3.776.683.725 1.579 1.088 2.688 1.088 1.749 0 3.285-.49 4.608-1.472 1.323-1.024 3.008-2.752 5.056-5.184.512-.597 1.088-.896 1.728-.896Zm-7.872-39.552c-.981 0-2.091 1.77-3.328 5.312-1.237 3.541-2.325 7.936-3.264 13.184-.939 5.248-1.451 10.283-1.536 15.104 3.029-4.992 5.44-9.984 7.232-14.976 1.792-5.035 2.688-9.621 2.688-13.76 0-3.243-.597-4.864-1.792-4.864Zm12.875 19.776c-1.792 0-3.136-.405-4.032-1.216-.896-.853-1.344-2.027-1.344-3.52 0-1.493.576-2.73 1.728-3.712 1.195-1.024 2.667-1.536 4.416-1.536 1.579 0 2.859.384 3.84 1.152.981.768 1.472 1.856 1.472 3.264 0 1.707-.555 3.072-1.664 4.096-1.109.981-2.581 1.472-4.416 1.472Zm-.512 34.368c-2.773 0-4.8-.981-6.08-2.944-1.237-1.963-1.856-4.565-1.856-7.808 0-1.92.235-4.373.704-7.36.512-3.03 1.152-5.845 1.92-8.448.384-1.365.896-2.304 1.536-2.816s1.664-.768 3.072-.768c2.176 0 3.264.725 3.264 2.176 0 1.067-.405 3.541-1.216 7.424-1.024 4.693-1.536 7.872-1.536 9.536 0 1.28.171 2.261.512 2.944.341.683.917 1.024 1.728 1.024.768 0 1.728-.533 2.88-1.6 1.152-1.067 2.688-2.752 4.608-5.056.512-.597 1.088-.896 1.728-.896.555 0 .981.256 1.28.768.341.512.512 1.216.512 2.112 0 1.707-.405 3.03-1.216 3.968-4.224 5.163-8.171 7.744-11.84 7.744Zm32.789-18.24c1.195 0 1.792.896 1.792 2.688 0 3.37-2.645 5.056-7.936 5.056-1.024 0-2.496-.192-4.416-.576.555 2.645 1.003 5.59 1.344 8.832.384 3.2.576 5.845.576 7.936 0 4.608-.747 8.128-2.24 10.56-1.493 2.432-3.456 3.648-5.888 3.648-3.072 0-5.269-2.176-6.592-6.528-1.28-4.352-1.92-10.923-1.92-19.712 0-8.192.875-16.49 2.624-24.896 1.792-8.448 4.224-15.424 7.296-20.928 3.115-5.547 6.528-8.32 10.24-8.32 2.005 0 3.563.896 4.672 2.688 1.152 1.792 1.728 4.203 1.728 7.232 0 10.027-5.995 20.95-17.984 32.768-.427 4.181-.64 7.85-.64 11.008 0 4.395.149 8.896.448 13.504.299 4.65.789 6.976 1.472 6.976 1.28 0 1.92-2.219 1.92-6.656 0-3.328-.235-6.55-.704-9.664-.427-3.115-1.024-6.4-1.792-9.856-.043-.555.128-1.259.512-2.112.427-.853.939-1.6 1.536-2.24.597-.64 1.131-.96 1.6-.96.853 0 1.877.043 3.072.128.384.043.832.064 1.344.064 1.707 0 3.605-.15 5.696-.448.341-.043.704-.085 1.088-.128.384-.043.768-.064 1.152-.064Zm-6.464-35.904c-.768 0-1.728 1.301-2.88 3.904-1.109 2.603-2.219 6.059-3.328 10.368-1.109 4.267-2.069 8.79-2.88 13.568 3.413-3.883 6.037-7.915 7.872-12.096 1.835-4.224 2.773-8.17 2.816-11.84 0-2.603-.533-3.904-1.6-3.904Zm25.828 24c.981 0 1.664.128 2.048.384.384.256.576.683.576 1.28 0 1.024-.555 4.672-1.664 10.944-.981 6.016-1.557 9.579-1.728 10.688-1.579 10.965-3.755 19.648-6.528 26.048-2.773 6.4-6.464 9.6-11.072 9.6-2.176 0-3.947-.683-5.312-2.048-1.365-1.323-2.048-3.072-2.048-5.248 0-2.005.448-4.053 1.344-6.144.939-2.09 2.645-4.501 5.12-7.232 2.517-2.688 6.059-5.781 10.624-9.28l.192-1.472c.299-1.579.64-3.84 1.024-6.784-.853 3.072-2.048 5.419-3.584 7.04-1.536 1.579-3.157 2.368-4.864 2.368-1.92 0-3.499-.875-4.736-2.624-1.195-1.792-1.792-4.01-1.792-6.656 0-3.2.213-6.123.64-8.768.427-2.688 1.131-5.525 2.112-8.512.427-1.28 1.024-2.197 1.792-2.752.768-.555 1.984-.832 3.648-.832.939 0 1.579.15 1.92.448.384.299.576.747.576 1.344 0 .341-.235 1.493-.704 3.456a66.636 66.636 0 0 0-1.024 4.288 143.18 143.18 0 0 0-.896 5.056c-.256 1.579-.384 2.88-.384 3.904 0 1.621.448 2.432 1.344 2.432.64 0 1.429-.64 2.368-1.92.981-1.28 2.005-3.221 3.072-5.824 1.109-2.603 2.176-5.803 3.2-9.6.341-1.28.853-2.197 1.536-2.752.725-.555 1.792-.832 3.2-.832Zm-17.664 52.736c1.067 0 2.261-1.237 3.584-3.712s2.645-6.592 3.968-12.352c-3.285 2.773-5.675 5.29-7.168 7.552-1.451 2.304-2.176 4.31-2.176 6.016 0 .725.128 1.323.384 1.792.299.47.768.704 1.408.704Z"/></svg>